<?xml version="1.0" encoding="utf-8"?>
<!-- Generator: Adobe Illustrator 22.0.1, SVG Export Plug-In . SVG Version: 6.00 Build 0)  -->
<svg version="1.1" id="레이어_1" xmlns="http://www.w3.org/2000/svg" xmlns:xlink="http://www.w3.org/1999/xlink" x="0px"
	 y="0px" viewBox="0 0 1920 937" style="enable-background:new 0 0 1920 937;" xml:space="preserve">
<g>
	<path d="M1923.1,365.6c0-4.4-1.6-5.6-5.4-5.2c-6,0.8-11.9,1-17.7,2.2c-28.8,5.8-56.1,16.1-81.9,30.2c-14.3,8-28.8,15.7-40.4,27.8
		c-1.8,0.2-3.8,0-5.6,1.4c-2.4,1.6-5.2,2-7.2-1.2c1.2-4.2,4-6.6,8-7.8c0.6-0.2,0.6-2,1-3.2l0,0l0,0c1.2-0.4,3,0,2.6-2
		c-0.4-1.6-1.8-1-2.8-0.6c-1,0.4-1.4-0.2-1.6-1.2l0,0c0.8-1.2,2.4-2.4,1.4-3.6c-1.2-1.6-2.6,0.2-3.8,0.8c-1.6,1-3.2,1.4-5,1.6l0,0
		l0,0c1.4-3.6,3.2-7,3.8-10.7l0,0c0-0.4,0-1.2,0.2-1.4c4-4-0.2-7.8-0.4-11.5c-0.2-1.4-1.8-1-2.8-0.2l0,0c-1.2,0.4-1.8-0.4-2.8-0.8
		l0,0c1.4-4.4-2.4-6.2-4.2-9.1l0,0c-0.6-0.6-1.2-1.4-1.8-2l0,0c0-1.2,0-2.6,0-3.8l0,0c3.6-2.4-2-4.4-0.2-6.8
		c-2.8,2.6-3.2,5.6-2.8,8.9l0,0c0.2,1-1.4,1.8-0.2,2.8l0,0c1.4,3.2-2.2,1.6-2.8,2.8c-0.2,0.8-0.2,1.8-1.2,2.2
		c-0.8-0.2-2.8-1.6-2.4-0.2c0.6,1.8-4.6,2.4-0.4,4l0,0l0,0c-0.4,3.6,1,6.8,1.8,10.1c-0.2,0.6-0.6,1-0.8,1.6c-1.4-1.8-3-4.6-4.2,0
		c-0.6,0.8-1.4,1.4-2,2.2c-1.8,0.2-4,0.2-1.8,2.8c0.2,0,0.2,0.2,0.2,0.4c0-0.2-0.2-0.2-0.2-0.4c0,1,0,2.2,0,3.2l0,0l0,0
		c-1.2,0-2.4,0-2.8,1.2c-0.4,1.2,1,1.4,1.6,2c0.8,0.6,1.4,1.2,2.2,1.8l0,0c0,0.2,0,0.6,0.2,0.8c0.2,1.8-1,2.8-1.8,4.2
		c-2.6,4.4,1.6,4.4,3.6,6c-0.2,3,2.6,0.2,3.2,1.8c0.4,1,0.8,1.8,0,2.8c0,0.2,0.2,0.4,0.2,0.4c-0.2,0-0.4,0-0.4,0l0,0
		c0-0.2,0-0.4,0.2-0.6c-2,0-4,0.2-6,0.2v0.2l0,0l0,0l0.2-0.2c-1.4-1-3.2-2.2-4.8-1.2c-0.8,0.4-1,2.4,0.4,3.4l0,0
		c0.2,0.4,0.4,1,0.4,1.4c-0.8,0.6-1.8,1.4-2.6,2c-0.2,0-0.4,0.2-0.6,0.4c0,0.6,0,1.2-0.2,1.8c-1.6,2.6,0.6,2.6,2,3.2l0,0
		c1.8,2.4,5.2-0.6,7,2c0.4,2.4,2,1.8,3.8,1.6c2-0.4,4.2-0.6,6.2-1c2.2-0.6,2,0.8,2,2.2c-7.2,2.8-15.1,1.2-22.3,4.2
		c-2.8,1.2-3.6,0-4.2-2.4c-1.2-5.2-2.6-10.1-4-15.3c-3,8.6-4.8,16.9-6.6,25.5c-0.2,1.2-0.2,2.4-1.6,2.6c-2,0.4-1.4-1.6-1.6-2.4
		c-1.6-3.8-1.6-8.2-4-12.3c-1.6,6.4-3.4,12.1-4.2,17.9c-0.6,4.4-3.2,6.4-7,7.8c-2.4-6-2.6-12.3-5.8-18.9c-0.8,3.4-1.2,5.6-1.6,7.8
		c-2.4,12.1-4.8,24.1-16.1,31.8c-2,1.4-3.4,4-5,6.2c-6.8,8.4-11.9,17.9-20.7,24.7c-2-0.8-3.6-0.8-5.2,0.8l0,0c-3.8-1-2.4-3-0.6-4.6
		c0.8-0.8,1.8-1.2,2.4-2.2c3.2-1,1.4-2.6,0.6-4c-0.2-1.2-0.8-1.2-1.6-0.6c-3.6,2-2.6-0.4-2.2-2.4c0-0.6,0.2-1.4,0.2-2
		c2.4-3.8,2.2-7-2.2-8.9c0.2-1.6-0.8-2.4-1.8-3.2l0,0c0-1.8-1.2-2.8-2.6-3.6c-1.4,1.8,0,4.8-2.2,5.2c-3.4,0.8-2.8,2.4-1.4,4.4l0,0
		l0,0c2,2.2-4,2.6-1,5c0,0.6,0.2,1,0.2,1.6c-0.8-0.2-1.4-0.4-2.2-0.6c-0.6-0.6-1.4-1.4-1.8-0.2c-0.6,1.8-2.4,3.8,0.4,5.4l0,0
		c0.2,0.6,0.2,1.2,0.4,1.8l0,0c-0.4,0.4-0.8,0.6-1.2,1c-1,0.8-1.2,1.4,0,2.2c1.6,1,3.2,2.2,4.8,3.4l0,0c-2.4,1.2-5.6-0.8-7.8,1.6
		c0,0.6,0,1.4,0,2c-2,2.6,0.2,3,1.8,3.6c3,1.2,6-0.2,8.9-0.4c0.8,1.2,0.4,2.4-0.2,3.6c-12.3,5.4-25.5,7.8-38.2,10.9
		c-0.4-4.6-0.8-9.1-1-13.7l0,0c0.4-0.6,0.6-1.2,1-1.8l0,0l0,0c0.8,2,2.4,2.4,4.2,1.6c1-0.4,2.4-0.8,0.6-2.2c-1.8-1-0.8-1.8,0-2.8
		c0.4-0.4,0.6-0.6,1-1c1.4,0.2,2.2-0.8,2.4-1.8c0.4-1-0.6-0.8-1.2-0.8c-0.4-0.4-0.8-1-1.2-1.4l0,0l0,0c-0.2-0.8,3.2-2.4-0.6-2
		c-1,0.2-2,0.4-2.4-0.8c0.8-1.6,1.6-3.2,2.4-4.8c0.2-0.4,0.4-0.8,0.6-1.2c1.4-1,1.2-2.8,0.4-3.2c-1.2-1-2.6,0.4-3.6,1.2l0,0
		c-0.2-0.2-0.6-0.6-0.8-0.8c-0.4-2.8,2-4,3-6c1.4-1,0.8-2.2,0.8-3.4c-0.6,0.2-1.2,0.2-1.8,0.4c0-0.4,0-0.6-0.2-1l0,0l0,0
		c0.2-0.8,0.4-1.8,0.6-2.6c-0.8,0.2-1.6,0.2-2.2,0.4c0.2-1,0.4-1.8,0.8-2.8c0.2-0.2,0.4-0.6,0.4-0.8c1-1.6,2-3.4-0.4-5
		c0.6-0.6,2-1,1.4-2.2c-0.2-0.4-1.8,0-2.8,0l0,0c0.2-1,0.2-2,0.4-3c-0.2-4-0.2-8.2-1.8-12.1c0-2.8,0-5.8-2.4-8.2c0,2.4,0,4.8,0,7.2
		c-2.4,2.6-2.6,5.6-1.8,8.9l0,0l0,0c-0.8,1.4-2.6,2.2-2,4.2c-0.8,2.6,2.6,5.2,0,7.8c-1.2,1.2-2.8,2.2-2,4.4l0,0l0,0
		c1,2.6,2,5.2,3,7.8c0.2,1.6-2,1.6-2,3c-0.4,1.4-2.4-0.8-2.6,1c0,1,0.8,2.2,2.2,2c0.8,1,1.6,2,2.4,3c0.2,0.2,0.2,0.4,0.2,0.4
		c0-0.2-0.2-0.4-0.2-0.4c-0.4,4.4-3.4-0.4-5,1.8c0.8,0.8,1.8,1.6,2.8,2.4c-0.4,0.4-0.6,0.6-1,1c-0.6-0.2-1.8-0.2-1.6,0.4
		c0.2,1.4,1.2,2.2,2.6,2.6l0,0c1,0.8,4.4,1,0.4,2.8c-2.8,1.2,0.2,1.6,0.6,2.4c-0.6,0.6-1.4,1-2,1.6c-0.6,0.2-1.2,0.4-1.6,0.6
		c0.8,1.2,2,1.8,3.6,1.8l0,0c1.2,1.2,3.8-0.8,4.4,1.8c0,2.4,0,4.8,0,7c0,2.4,0,4.6,0,7l0,0c-5.8,3.8-11.7,7.4-17.5,11.3
		c-2.8,2-3,1-3.6-1.6c-1-4.6-2.4-8.9-3.6-13.5c-2.8,8.2-4.8,16.3-6.6,24.3c-0.4,1.4,0.2,2.8-1,4.2c-9.5,9.9-16.7,21.9-25.3,32.6
		c-4.2,5.2-9.1,8.4-16.3,7.4c0.4-0.6,0.6-1.2,1-1.8l0,0c1.4-0.2,3,0,3.8-1.6c-1-1-3.6,0-3.8-2.4c1.2-0.6,2.6-1.4,3.8-2
		c1.2-0.4,2.4-0.8,2.6-2.8c-2.2,0.4-4.4,1.4-6.6,0.8l0,0c1.2-1.6,3.6-1.4,4.6-3.4c-0.4-1.6-4.2,1.2-3.4-2.4l0,0
		c0.8-1.4,1.8-2.8,2.6-4.2c3.4-1.4,0.4-4.4,2.2-6.4c-2,0.6-3.2,1.4-4.2,2.6c-0.6,0-1.2,0-1.8,0c0.6-1-0.4-2.4,0.8-3.2l0,0
		c0.8-0.6,1.4-1,2.2-1.6c1.8-2.4,3.8-4.8-1-6c0.2-1.6-1.4-1.2-2-2l0,0c0.2-1,0.2-2,0.4-3l0,0l0.4,0.2l0.2-0.2c1.2-1,1.2-2.2,1-3.6
		c-0.4,0.2-0.8,0.2-1.2,0.4c0.8-1.8,2-3.6-0.8-4.8c0.2-0.2,0.2-0.4,0-0.6l0,0c0.2-1.4,0.4-2.8,0.8-4.2c0.4-1.8,0.8-3.6-1.8-4
		c1.6-2.8-0.8-5-1.2-7.6c0-0.6-1-1.6-1.8-1c-1,0.6-1.6,1.6-0.4,2.8c-1.2,1-1.8,2.2-1.8,3.8c-0.4,2.2,0.4,4,1,6
		c-2.4,1.4-4.4,3.2-2.2,6.2c0.4,0.6,0.6,1.4,1,2c-0.2,1.2-2.8,2.4-0.2,3.8c-4,2.6-3.4,5.8-0.8,8.9c0,0.2,0,0.6,0.2,0.8
		c-0.4,0.6,0.2,1.8-1,2c-0.6-0.8-1.8-1.8-2.2-1.4c-1.2,1,0.6,2.2,0.4,3.4l0.2-0.2c0,0.2-0.2,0.2-0.2,0.2c-1.8,2.6,0.6,3,2,4
		c1.2,1.2,1,2.6,1,3.8c-1.2-0.4-2.4-0.8-3.6-0.8c-1.2,0-1.2,0.6-0.4,1.2l0,0l0,0c-0.8,0.8-2,1.2-1,2.6c0.4,1.6,1.8,2.4,3.2,3
		c1,0.6,2.4,0.6,2.8,2c-0.8,0-1.6,0-2.4,0s-1.8-1-2,0c-0.4,1,0.8,1.6,1.6,2.2c0.4,1.6,2.4,0.4,3,1.8c-1.6,2-3.8-0.6-5.6,0.6
		c1.6,3.2,4.4,3.4,7.4,2.8l0,0c0.2,0.6,0.2,1,0.4,1.6c0,0.6-0.2,1.2-0.2,1.8l0,0c-10.9,0.8-21.7,0.2-30.6-7.8
		c0.4-1.2,1.8-2.2,0.6-3.4c-1-1-2-0.4-2.8,0.4c-0.2,0-0.6,0-0.8,0c-0.2-0.6-1.6-1.4-0.4-1.8c2-0.8,5.2-1.4,4.6-3.4s-3.2,1-5.2,0.2
		c-0.4-2-0.4-3.8,1.8-4.8c3.8-2.8,4-4.2,1-6.4l0,0c-1.2-0.2-4.2,3-3-1.6l0,0c0.2-0.4,0.4-0.8,0.4-1c1.6-4.8,1.2-5.4-2.4-6
		c1-1,4.4-0.8,2.2-3.8l0,0c-1.4-0.6-0.6-2.8-2.4-3.2l0,0l0,0c-1.2-1.6-2.4-3-3.6-4.6c-0.8,3.2-2.6,5.4-4.6,7.4c-1,0.8-1,1.6,0.2,2.2
		c-0.2,0.8,0,2-0.4,2.2c-3.6,1.6-1.4,2.6,0.2,3.8c-0.6,1.2-1.4,0.6-2,0.2c-0.6-0.4-1.4-1.4-2-0.6c-0.2,0.4,0.4,1.4,0.6,2.2
		c-2.6,0.8-2.6,1.8-0.2,3c-0.2,0.4-0.2,0.6,0,1c-0.2,0.8-0.6,1.4-0.8,2.2c-0.4,2.8,1.8,3.4,3.8,3.8c0.4,2.6-1.8,1.8-3,2.2
		c-9.3-3.8-18.1-8.8-27.8-11.7c-13.9-4.2-28-4.8-40.8,3c-8.2,5-16.1,7.4-25.3,6.6c-1.8-0.2-3.6-0.2-5.4,0.2
		c-2.6,0.4-3.8-0.4-4.4-3.2c-1.2-5.6-3-11.1-4.4-16.7c-2.4,6.6-4,12.9-5.4,19.3c-0.4,2.2-1.6,3.2-3.6,3.4c-2.8,0.2-2.2-2-2.6-3.4
		c-1.6-5.4-3-10.9-4.4-16.3c-2.4,6.2-4.2,12.1-5.2,18.1c-0.6,3.4-2.4,4.2-5.4,4.6c-11.3,1.6-22.9,1.2-33.8,4.4
		c-9.3,2.6-18.5,2-27.2-1.4c-3.2-1.2-6-2.4-9.3-2c0-1.8-1.4-4.2,1.8-5c1.2-0.4,2.4-1.2,2.2-2.8c3.4-2-0.2-2.2-0.8-3.2
		c0.8-0.6,2.2-1.4,1.2-2.4c-1.2-1.2-2.2,0.4-3,1.2l0,0c-1,0-2,0-3.2,0.2c0-1.6,2.2-2,1.8-3.8c-0.2,0-0.4,0-0.6,0l0,0l0,0
		c0.2,0,0.4,0,0.6,0.2c1-2.6,1.6-5.4,0.8-8.2l0,0c-0.4-1.4,1-4-2-4c-0.4-0.6-0.8-1.4-1-2c-0.6-0.6-1.2-1.2-2-1.8
		c0.2-3-3.2-4.4-3.6-7.2c-0.4,3-4,5.2-2,8.6c-1.6-0.4-3.6-2-3.4,1.6c0,0.4,0,0.6,0,1l0,0c-1.8,1.6,0.4,2.2,0.8,3.2
		c-0.6,0.8,0.6,4.4-2.6,2c-0.4,0.4-0.6,0.6-0.8,1c-1.2,1.2-3.2,1.6-3,4c0.4,1,0.8,2,1.4,3c-0.8,0-2.2-0.2-2.2,0c-0.4,1.6,1.2,2,2,3
		l0,0c0,0.6,0.2,1.2,0.2,1.8c-0.4,0.4-0.8,0.6-1.2,1l0,0c-1.8,1.6-1.6,2.8,1,3.2c0.2,2,1.8,1.6,3,2l0,0c0,0.6,0,1.2,0,2
		c-0.8,0.2-1.6,0.2-2,1c-0.8,0-1.6,0.2-2.2-0.6c-0.4-1.6-1.6-2.2-3-1.8c-1.6,0.6-0.8,2.2-0.8,3.4c-7.2,2.8-14.5,4.4-21.9,6.2
		c-3-0.2-5.2-0.8-3.8-4.6c0.2-0.4-0.8-1-1.2-1.6l0,0c2-6,0.6-11.7-1-17.3c1.6-2.8-0.8-5.6-0.2-8.6c0-1.6,0.6-3.2-1.4-4.4
		c-1.2,1.2-0.8,2.8-0.8,4.2c-0.4,3.6-0.8,7-1,10.5c-0.2,2.2-2.4,4.6,0.2,6.6c0,0.2,0,0.6,0,0.8c-3.8,1.2-3,2.6-0.2,4.2
		c0,0.2,0,0.6,0.2,0.8c-1.2,2.4-3.2,4.8-0.2,7.2l0,0c0,0.8-0.2,1.6,0.8,1.8c0.2,0.6,0.2,1.2,0.4,1.8c-14.1,5.4-28.8,5.4-43.8,5
		c0-1,0-2,0-3c1-1,2-1.8,2.8-2.8l0,0c0.2,1-0.2,3.4,0.6,3c2.2-1,5,2.8,6.4-1c1.2-0.6,2.6,1.4,3.6,0c0.8-1.2,1-2.8-0.6-4
		c-0.8-1.6-1.2-3,1.2-3.2c1.4-1.2,1.2-2.6,0.2-3.8s-2.2-0.4-3,0.4c-1.6,1.2-3.4,0.6-5.2,0.6c0.2-3.2,1.2-5.8,4.8-6.8
		c1.6-0.4,1-2.4,2.2-3.2c4.4-2.4-1-2.6-1-4c0.2-0.6,0.8-1.2,0.6-1.8c-0.4-1.2-1.2-0.8-1.8-0.2c-1.6,1-3.2,2.4-5.6,1.2
		c0.6-1.4,2.8-2.2,2-4.2c0.4-1,0.6-2,1-3c0-1,0-1.8,0.2-2.8c0.4-1,2.6-1.8,0.6-3c-1.4-0.8-2.4,0.4-3.2,1.6l0,0
		c-0.2,0-0.6,0.2-0.8,0.4l0,0l0,0c-0.2-0.6-3,1-1.2-1.2c0.8-1.2,2.2-2,3.4-2.8l0,0c0.8-1,1.2-2,0-3l0,0c-1.4-0.2-2.2-1-2.2-2.2l0,0
		l0,0c-1.8-2.8-3.6-5.4-5.2-8.2c-1.4-2.6-1.8-0.2-2.6,0.4c-1.6,1.6-3.4,3.2-5,4.8c-2.4,2.6-1.8,5-0.2,7.4c0,0.2,0.2,0.6,0.4,0.8
		c0.2,0,0.4,0.2,0.6,0.2l0,0c-0.2,1.2,0,2.6-1.8,2.8c-2.4,0.4-2.4,1.6-1,3.2l0,0c0.6,0.6,1.2,1.2,2,2c-0.6,0.2-1.2,0.6-1.8,0.8l0,0
		l0,0c-0.6-0.4-1.2-0.8-1.8-1.2c-0.6-1.2-1.8-1.6-2.2-0.4c-0.6,1.6,0.4,3,2.2,3.8c0.4,0.4,0.6,0.6,1,1l0,0l0,0c-0.4,0.4-0.6,0.6-1,1
		c-1-0.6-2.4-2.2-3.2-1c-0.8,1.4,1.6,1.8,2.2,3l0,0c0,0.2,0,0.6,0,0.8l0,0l0,0c-0.2,1-0.6,2-0.8,3l0,0l0,0c-2.6,4.6,2.2,4.2,4,5.8
		l0,0l0,0c0.6,1,0.8,2-0.2,2.8l0,0c-1.6-0.2-3.4,0.2-4.8-0.6c-2.2-1-2.4,0.6-3,1.8c0,1.2,0,2.6,0,3.8c-1.2,0.2-2.6,0.2-1.6,2
		c0.8,1.4,2.4,1.8,4,2.4c4.6,2,8.9-1.2,13.3,0l0,0c0,2,0.2,3.8,0.2,5.8c-0.6,0.4-1,1-1.6,1c-13.9,0-27.8,0.2-41.6,2.2
		c-2.8,0.4-3-1.6-3.4-3.2c-1.2-4.8-2.4-9.7-3.8-14.5c-2.4,5.8-3.8,11.3-5,17.1c-0.6,2.6-1.8,3.4-4.2,3.8c-7.4,1.4-14.5,1.6-21.9,0.6
		c-1.8-1.6-1.6-3,0.8-4l0,0l0,0c4.6-3.8,0.6-4.6-2-6l0,0c1.6-3.4,2.2-6.6-1.8-8.9c-0.4-1-0.8-2-1.2-2.8l0,0c0.2-1.6-0.6-2.4-1.8-3.2
		c-1.6,1.2-0.6,4.2-3.2,4.6c1.2,2.6-3.6,5-0.2,7.8c-3.6,0.4-4.4,1.4-2.8,3.8c0.4,1.6-1.8,3.4,0.2,5c-0.4,1-1.4,0.8-2.2,1.2
		c-9.9,0-19.1-3.6-28.4-6.4c-2.4-0.6-2.6-2.6-3.2-4.6c-1-3.4-1.2-7-3.4-10.5c-0.6,2.8-1.4,4.8-1.6,7c-0.6,3.8-1.4,5.4-6.2,4
		c-19.1-5.6-37-2.6-53.3,8.8c-4.2,3-8.4,6-13.1,8c-1.4,0.6-2.6,1.2-4.2,0c-6.6-5.6-14.7-6.8-22.5-8c-21.1-3-42-3.2-63,2
		c-11.1,2.8-22.7,3.6-33.8-1.4c5-0.8,5.4-0.8,4.4-4.2c0-0.2-0.2-0.6-0.2-0.8c-1.4-1.2-2.6-1.8-4.2-0.2l0,0l0,0c-0.4,0-1,0.2-1.4,0
		c-1.2-0.4-3,0-3-1.8c0.2-2,1.6-0.8,2.8-0.8c2.4,0,3.8-3.2,6.6-3.2c0.4,0,0.4-2.2-0.2-3.2c-0.6-1-1.8-1.2-2.6-0.4
		c-2,2-4.6,1.6-7,1.4c-0.2,0-0.2,0.2-0.4,0.4l0,0l0,0c0.2-0.2,0.2-0.2,0.4-0.4c0.4-2,0.8-6,1.4-6c4.2-0.2,5.2-3.8,7.4-6l0,0
		c1.6-1.2,0.8-1.6-0.6-2c-1-0.2-2,0.2-2.4-1c2.6-2.8,2.6-3,0-4l0,0l0,0c-3.2,1.4-3.6-0.8-4-3c2.2-2.2,0.8-4.8,0.8-7.2l0,0l0,0
		c0.6-0.8,2.2-1.8,0.2-2.8c-0.6-1.8,1.2-4.2-1.2-5.8l0,0c-0.2,0-0.4,0-0.6,0l0,0c-1-0.4-2.4,0.2-3-1l0,0c2.4-3.8-1.2-5-2.8-7.2
		c0-0.4-0.2-0.8-0.6-1l0,0l0,0l0,0c-2.2,0-2-2-3-3c-0.2-0.8-0.2-1.4-0.4-2.2c-1.2,0.8-1.4,2-1.8,3.2l0,0c-0.8,0.6-0.6,1.2-0.6,2
		c-0.2,2.4-0.8,4.6-1.2,7c-1-1.4-2.4-2.6-3.4-0.8c-1,1.8-2.6,4.2,0.2,6.2c-0.4,1.4,1,3.8-1.6,4c-5.6,0.4-3.2,2.6-1.4,4.8l0,0l0,0
		c-0.6,0.2-1.2,0.6-1.8,0.8l0,0l0,0c-0.8-1-1.6-2.2-3-1.4c-1.2,0.8-0.4,1.6,0,2.4l0,0c-0.4,1-0.8,2-1,3c-2.2,2.8,2.8,2.6,2,5
		c0,1.2,0,2.6,0,3.8c-0.4,0.2-0.6,0.2-1,0.4c-3.6,3.4,0.2,3.2,2,4.2l0,0l0,0l0,0l0,0v-0.2l0,0c0,0.4,0,0.6,0,1c-0.6,2.4,3.4,1.6,3,4
		c-0.4,0.4-0.6,0.8-1,1l0,0c-1,0-2,0-3,0c-0.2,0-0.2-0.2-0.4-0.2c-1.8-0.8-3.2-3.8-5.6-0.8c-21.3-12.9-44.3-15.3-68.4-10.5
		c-2.8,0.6-3-0.2-3.4-2.4c-1.6-7.8-3.4-15.5-5.4-24.5c-2.4,9.5-4.8,17.9-6.4,26.5c-1,5.6-5.4,4.4-8.8,5.2c-3.8,0.8-2.8-3-3.2-4.8
		c-2.6-11.5-5-23.1-7.6-35.4c-0.6,2.4-1.2,3.8-1.6,5.4c-2.8,11.5-5.6,23.1-8,34.6c-1,5.2-4.8,3.8-8,4.4c-3.2,0.4-3.8-1-4.4-3.8
		c-2.8-13.9-6-27.8-8.9-42.4c-0.6,2-1.2,3.2-1.4,4.4c-2.8,11.5-5.6,23.1-8.2,34.6c-0.8,3.6-1.8,4.4-5.4,2.6
		c-9.9-4.8-20.1-9.3-29.6-14.9c-12.3-7.4-25.5-11.5-39.6-13.5c-0.2-1,0.2-2.4,1.2-2.2c2.8,0.4,4.4-0.6,3.2-3.4c-1.4-3.4-3.2-1-5-0.4
		c-2.2,0.8-5.6,2.8-6.2-2c1.4-0.2,2-1,1.4-2.4c-0.4-1-0.8-2.4,0.6-2.4c5.4,0.2,5.8-5,8.8-7.4c-1.6-1.6-4.2,1.2-4.8-1.8l0,0
		c0.6-0.6,1.2-1,2-1.6c0.8-0.8,1.2-1.8,0.6-2.6c-1-1.6-2-0.2-2.8,0.4c-0.6,0.4-1.2,0.6-1.8,0.8l0,0c-2-1.8-0.8-4.2-1.2-6.2l0,0l0,0
		c0.6-2.8-1.8-5.8,1.4-8.4c1-1-0.8-1.8-2-1.4c-1.2,0.4-2.2,1.4-3.4,2c-0.8-0.2-1.8-0.2-2.2-1.2l0,0l0,0c1-1,2.2-2,3.2-2.8
		c3.2,0.4,3.2-1.8,2.8-3.8c-0.4-1.8-1.8-1.4-2.8-0.2l-0.2-0.2c-2,0-1.6-1.6-1.8-2.8c1.4-3-1.2-3.4-2.8-4.2l0,0
		c1.2-3.8-4.2-3.6-4-6.8c0.8-1.4-0.4-2.6-0.8-4c0.2,2.6-4,4.2-1.6,7.4l0,0c-0.2,0.8,0.6,2.4-0.8,2.2c-2.6-0.4-1.8,1.4-2,2.6l0,0l0,0
		c-1.6,0.4-2.6-2-4.2-0.6c-0.2,0.2,0.6,1.6,1,2.4l0,0c-3.6,0.2-0.4,2.2-0.8,3.2c-0.6,1-1.8,2-0.2,3.2c1,1,1.2,2.4,1,3.8l0,0
		c-0.6,0.4-1.2,0.8-1.8,1c-3.4-0.6-2.6,2-3,3.8l0,0c0,0.8,1,1.6-0.4,2.2c-1.2-1-2.6-2-3.8-0.8c-1.6,1.4,0.8,2.4,1,3.6
		c-0.6,0.6-1.2,1.4-1.8,2l0,0c-1,0.4-2.6,1-0.8,2c2,1,2.4,2.8,3.8,4.2l0,0c0,0.6,0,1.2,0,2c-1.2,0.8-3,1-2.8,3c-1,3.4,2.4,2.8,3.6,4
		l0,0c0,1.6,0.8,1.8,2.4,2.2c2.2,0.4,3.6,1.8,0.6,3.6l0,0c-3.6,0.6-6.8-1.8-9.9-2.2c-1.4,2.6,0.8,4.2,1.4,6.2
		c-0.4,0.4-0.8,0.8-1.2,1.2c-1.8,0-2.8,1-3,2.8c-3.6,1.2-7.2,2.6-10.7,3.6c-7.2,2.2-13.7,5.8-20.9,7.4c-3.8,0.8-5.4-0.2-6.2-4.2
		c-2.6-13.1-5.4-26.1-8.4-40.4c-3.6,14.9-7,28.6-10.1,42.4c-0.6,2.4-1,3.4-3.6,3.4c-9.9,0.2-19.3-2.2-27.4-8.2
		c0.2-3.2,0.2-6.6,0.4-9.7l0,0h0.2l0.2-0.2c1.2,3.2,3.2,2.2,5.2,1c1-0.2,2.2-0.4,2.4-2c-1.6-0.4-3.2-0.6-4.6,0.8
		c-0.6-0.6-3.6-0.8-0.4-2.4c1.2-0.6,2.2-1.2,3.4-1.8l0,0l0,0c1-0.4,2.6-0.8,1.8-2.2c-0.6-1-1.6,0.4-2.6,0.4l0,0
		c-0.6-0.4-1.4-0.6-2-1c1-0.8,2.8-1,2.6-2.8c-1.2-1-3.4,1.6-3.8-1.4l0,0l0,0c1-1.6,2-3.4,3-5l0,0c1.8-1.2,1.2-3.2,0.6-4.4
		c-0.4-0.6-2,0.2-2.8,1.2c-1.4-0.6-0.4-2-0.8-2.8c0.2-0.2,0.2-0.4,0.2-0.8c0.6-0.6,1.4-1.4,2-2l0,0c1.6-1.2,1.8-2.8,1.4-4.6
		c0-0.2-1.6,0-2.6,0.2c0.2-0.2,0.2-0.4,0-0.6c0.4-1.8-1.8-3.2-0.8-5l0,0c1-1.2,0.8-2.6,0.6-4.2c1.4-0.8,1-1.8,0.8-3l0,0l0,0
		c-0.6-0.8-1.4-1.4-2-2.2c0-1.2,0.6-2.8,0.2-3.4c-1-1.2,0.6-4.4-2.8-3.8l0,0c0.8-2.4,2.4-4.6,0-7c1.4-1.4,0.2-2.4-0.2-3.6
		c1.2-1.6,0.2-2.8-0.6-4.4c-1.2,1.6-1.4,3-1.2,4.6l0,0l0,0c0.4,3.8-4,7-1.4,10.9c0,0.4,0,0.6,0.2,0.8c-0.2,1.6,0.2,3.8-0.6,4.6
		c-1.8,1.6-2.2,1.2-0.6,3.8l0,0c0.6,1.8-2.4,4.4,1,5.8c-3,0.6-5.4,1.4-3,5l0,0c-0.2,1.4,0.2,2.8,1.2,3.8c1.6,2-3.8,1.8-1.2,4.2
		c-0.4,1.6-2.4-0.4-2.4,1c0,1.4,1.2,2.4,2.8,2.8c0.6,1,1.4,2,2,3c-0.4,0.8-1,1.2-2,1c-1-1-1.8-2.2-3.8-1.6c0.8,1,1.4,1.8,1.8,2.6
		c-0.4,0.4-0.8,0.8-1,1c-2,2,0,2.2,1.2,2.8c0.2,0.4,0.6,0.8,0.8,1.2c-3.2,1-3.2,1-1.2,3l0,0c0.6,1.2,1.6,2.2,3.2,2
		c0.4,3-2.8,1.2-3.8,2.8c1.8,1,3.4,3,5.8,1.4c0.4,0.2,0.8,0.6,1,0.8c0.4,2.8,2.2,6-1.2,8.2c-4-2.2-8-4-11.7-6.6
		c-14.7-9.9-29.4-20.3-44.2-30.2c-3.4-2.4-5-5.2-5.8-9.1c-3.2-16.1-6.8-32.2-10.3-49.5c-3.4,13.9-6.4,26.6-9.5,39.8
		c-7.4-6-13.9-11.5-21.3-15.9c-7.8-4.8-16.3-4.8-25.1-4.4c-0.6-1.8,0-3,2.2-2.6c2.6,0.4,1.6-1.6,1.6-2.6c-0.2-1.8-1.4-2.2-2.8-1.6
		c-1.6,0.8-3.2,1.8-5,1.8c-1-0.6-2.6-0.8-2-2.8l0,0c1.4-1.6,0.8-4.8,4-5c3.4-0.6,3-4.4,5.6-5.8c-1.2-1.4-5.6,0.2-2.8-3.4
		c1-0.6,0.8-1.4,0.2-2c-1.6-1.4-2,1-3.4,1c-3.2-0.6-1.4-3.2-2-5c0-2-0.2-4.2,0.2-6.2c0.2-1,2.6-1.6,1.2-3c-1-0.8-2.4,0.4-3.4,1.2
		l0,0c-1.4,0-2-0.6-2-2c0.6-0.4,1.4-0.8,2-1.2c2.2,0,2.2-1.8,1.6-3.2c-0.6-1.2-1.8-0.8-2.6,0.2l-0.2-0.2c-1-0.8-0.6-2-0.8-3l0,0l0,0
		c-0.8-3.8-3.6-6.2-6-8.9c0.8-1.6,0.4-3-0.6-4.6c-1,2.4-2.8,4-2.2,6.6c-3-0.2-2.2,2.6-3.2,4.2c-0.8-0.2-1.4-0.4-2.2-0.6
		c0,0.8,0.2,1.8,0.2,2.6l0,0l0,0c-0.6,2.2-2.2,4.4,0.6,6.2l0,0c-0.2,2.4,0.6,5.6-3.8,3.8l0,0l0,0l0,0l0,0c-1.6,1-0.4,3.4-2.2,4.2
		c-4.2,1.6-1.4,2.6-0.2,3.8c0,0.2,0.2,0.6,0.4,0.8l0,0l0,0c0.4,0.4,0.8,0.6,1,1c-0.4,0.4-0.8,0.8-1.4,1.2c-1.2-1-2.4-2.2-4-1
		c1,1.2,2.2,2.6,3.2,3.8l0,0c0,0.4,0,0.6,0,1c-0.4,1-0.8,2-1,3c-2,2.2-1.8,3.8,1,4.8c1,2,2.8,2.2,4.8,2.6l0,0l0,0
		c0.4,4.6-3.2,1.8-4.8,2.8c0.2,0.2,0.4,0.2,0.8,0.4c-0.2,0-0.6-0.2-0.8-0.4c-2.4-1.4-4.8-1.8-7.6-1.6c-3.8,0.4-7.6,0.4-11.3,0.6
		c-4,0.2-6.2-1.4-7-5.8c-2.8-14.5-6-29-9.3-44.9c-3.4,13.7-6.4,26.3-9.5,39.4c-11.3-10.5-22.1-20.5-33.6-29.6
		c-0.4-1.2,0.2-1.6,1.2-2.2c1-0.6,2.4-1.4,0.8-2.8c-0.8-0.2-1.4-0.4-2.2-0.4c0.4-0.4,0.8-1,1.2-1.4c0.4-0.4,0.6-0.8,1-1
		c1.4,0,2.8-0.6,2.4-2c-0.2-1.2-1.6,0.2-2.4,0c-0.6-0.4-1.4-0.6-2-1l-0.2-0.2c2.2-0.4,3.6-1.6,5.2-4.8c-2.4,1.2-3.8,2-5.2,2.8
		c-0.6-0.4-1.2-0.6-1.8-1c1-1.8,1.8-3.4,2.8-5.2c2.6-3.4,2.6-3.4-1.2-4.6c-1.8-0.6-0.4-2.2-0.4-3.2c-0.2-0.2-0.4-0.2-0.4-0.2l0,0
		c0.2,0,0.2,0.2,0.4,0.4c1.8-1.2,3.2-2.8,2.6-5.2c-0.4-1.4-1.8-0.8-2.8-1l0,0l0,0c0-0.2,0.2-0.6,0.2-0.8l0,0l0,0
		c0.8-0.2,1.6-1,1.4-1.8c-0.2-1.4-1.8,0-2.4-0.8l0,0c1-2,2-4.2,1.8-6.6c1.2-4.6-1-8.6-1.6-12.9c0-0.4-0.8-0.6-1.2-0.8l0,0l0,0
		c1.6-2-1.8-3-1.4-4.8c0-0.2,0.2-0.2,0.2-0.4c1.4-1.6-0.2-3.4,0-5c0.2-1.4,0.4-3-1.2-3.2c-1.2-0.2-0.6,1.4-0.6,2.4
		c-0.2,1.8,0,3.6-0.6,5.2c-1,3-3,5.8-0.8,8.9c0,0.4,0,0.6,0.4,0.8c-1,1.6-3.2,3.6-2.8,5c0.6,2.4,0.6,4.6,0.6,7c-0.6,1-2.6,1-2.2,2.8
		l0,0c-0.8,1.6,0,3,1,4.2c0.2,1-0.2,2.2,1,3c0.4,2-3.4,3-1.6,5.4c-0.6-0.4-1.6-0.6-1.6-0.2c0,1.4,1,2.2,2.2,2.6
		c0.4,0.6,0.8,1.2,1.2,1.8c-0.2,4.8-3.6-0.6-4.4,1c0.8,1.2,1.6,2.2,2.2,3.2c-0.2,1-0.6,2-0.8,3c0,0.2,0,0.6,0,0.8
		c-0.4,0.4-0.8,0.8-1.2,1.2c-5.6-4-9.7-9.7-15.1-13.9c-4.6-5-9.7-9.9-17.3-10.9c-3.8-0.4-4.8-2.4-5.4-5.6
		c-2.2-11.5-4.8-22.9-7.6-35.6c-3,12.5-5.8,23.7-8.4,34.8c-0.4,2.2-0.8,3.6-3.6,3.6c-14.1-0.4-28-0.8-42.2-1c0-0.6,0-1.2,0-1.8l0,0
		c0-0.6,0-1.2,0-2c0.6-0.2,1.2-0.6,1.8-0.8l0,0c3.4,3.6,4.4,3.4,6.4-1.2l0,0c0.6,0,1.2,0,1.8,0c0.6,1.2,1.2,2.6,2.8,2.2
		c1.2-0.2,1.2-1.8,1.4-3c0-1.2,0-2.2,0-3.4l0,0c-0.4-2.4-4-1.4-4-4.2c0-4.4,3.6-0.6,5-2c-0.4-2.6,1.4-6.8-4.4-5l0,0
		c-0.6,0.4-1.4,1-2,1.2c-2,1-4.6,0.8-6.2-0.4c-2.4-1.8,1.2-2.2,1.4-3.6c0.2-1.2-0.6-1.8-1.6-2.2c0.2-0.4,0.4-1.2,0.8-1.2
		c5.2,0,7.6-3.8,10.1-7.4c0.4-0.6,1-0.8,0.8-1.6c-0.2-0.6-1-1-1.6-0.6c-2,0.8-3.4,1-2.8-1.8l0,0c0.6-0.4,1-0.8,1.6-1.4
		c1.8-0.8,1.6-2.2,0.6-3c-1.4-1.2-2.2-0.4-2.8,1l0,0c-0.8,0.6-1.6,1.4-2.6,1.2c-1.8-2.2-0.6-4.8-1-7c0.8-2.8,0-5.4-0.8-8
		c0,0.2-0.2,0.4-0.4,0.6c0.2-0.2,0.2-0.4,0.4-0.6c2.2-0.2,3.8-1.2,2.6-3.4c-1-1.6-2.6-0.2-3.8,0.6c-1,0.6-2,1.2-2.8,1.8l0,0l0,0
		c-1-0.2-2.2,0.2-3-1l0,0c0.4-0.4,0.6-0.8,1-1l0,0c2.2-0.2,2.6-2.8,4.8-3c2.4-0.2,2.2-2.8,1.8-4c-0.8-2.4-2.4,0.2-3.6,0l0,0l0,0
		c-0.6-0.8-1.4-1.6-2-2.2c2.6-3.2-0.2-4.4-2.2-6l0,0l0,0c0.6-5.4-4.8-8.8-5-13.9c0.4-1.2,1.8-2.6,0.2-3.4c-1.6-0.8-1.6,1.4-2.2,2.4
		c-0.2,0.6-0.2,1.2-0.2,1.8l0,0c-1,1.2,0.4,2.6,0,3.8l0,0l0,0c-0.2,0.4-0.4,0.8-0.6,1.2l0,0c-1,2.4,0.2,5.6-3.2,7
		c-0.2,1.2-0.8,2-2,2c-4.2-0.8,0.8,2.6-1.2,2.8l0,0c-1.2,0.8-1.8,2.6-1.4,4.2c0,0.6,0.2,1.2,0.6,1.8c0.2,0.4,0.6,1,1,1.2
		c-0.6,2.6,1.2,5.2,0.2,7.8c-1.2-1-1-3.6-3.6-3.4c-2.6,0.4-1,3-2.4,4.2l0,0c0.2,1.6,2.8,2.8,1,4.8l0,0c-0.4-0.2-0.8-0.4-1.2-0.4
		c-0.2-2.6-1.6-3.8-3.8-2.4c-2.4,1.6,1,2,1,3.4c-1,1-2,2-3,3c-1.8,1.2-1,2.2,0.4,2.8c1.6,0.6,2.4,1.6,2.6,3.2c0.4,1.6-1.2,3.2,0,4.8
		c-1.4,0-2.2,0.6-2,2c-0.2,0-0.6,0-0.8,0.2l0,0c-0.8,0.6-1.4,1.2-2.2,2c-9.7-13.9-18.3-28.8-31.8-39.8c0.8-2,1.8-3.6,4.4-2.4l0,0
		l0,0c1-1,3,1.2,3.6-0.6c1.8-5,3.8-1.4,6-0.4c2-0.8,2-2.2,1.2-4c0.2-1.8-0.4-3-2-3.8c-0.6-1.2-2-1.6-2-3.2l0,0l0,0
		c0.4-4,3.2-1,5-1.8c-1-2.2,2-7-4.2-5.2c-1,0.6-1.8,1.4-2.8,2c-3.2,1.6-5.2,0.6-6-2.8c0.8,0,2.2-0.4,2-1c-0.8-4,2.4-4.4,4.8-5.6
		c1.6-0.8,3-1.6,2-3.6l0,0c0-0.6,0.2-1.4,0.2-2l0,0l0,0c2-1.8,2-1.8-0.2-2.4c-1-0.2-1.4-0.8-1.8-1.4c0.4-1.8,4.8-2.2,2.4-4.8
		c-1.8-2.2-2.6,1.6-4.4,1.8c-0.4,0-0.6,0.2-1,0.2c-2-2-0.8-4.8-1.2-7c1.2-3.2-2.2-7,2-9.5c0.4-0.4,0-2-1-2.4
		c-0.4-0.8-0.8-1.6-1.2-2.2l0,0l0,0c-0.6-1.4,1.8-5.2-2.8-3.6c-2-0.2-2.2-1.4-1.4-3.2c0.6-1.2,0.8-2.2-0.8-2.8
		c-1.6-0.8-3.2-1.6-4.6-2.4c-1,0-1-0.6-1-1.2c2.4-0.2,2.4-1.2,0.4-1.8c-2.4-0.6-3-2-3-4.2c2-2.2,1.4-4.2-0.4-6c0.4-1,1.2-2,0.8-3
		c-0.2-0.2-1-0.4-1.2-0.4c-1.2,0.8-1.2,2-0.6,3.4l0,0c-2.6,1.4-0.4,3.4-0.8,5.2l0,0l0,0c0.6,2-3,2.8-1.2,5c-0.4,3.6-2.6,0-3.8,1
		c-1.4,1-2.8,2-4,3l0,0c0,0.8-0.2,1.6,0.6,2l0,0c-3.6,2,0,4.8-0.6,7c0-0.2,0.2-0.2,0.2-0.4c0,0.2,0,0.2-0.2,0.4
		c0.8,2,2.6,3.4,1.8,5.8c-1.2,2.2-5.6-0.8-5.2,3.4c0.2,2.4,1.2,4.4,4,4.6c0.2-0.2,0.4-0.4,0.6-0.6l0.2,0.2c-0.2,0.2-0.4,0.4-0.8,0.4
		c1,0.6,2.8,0.8,2.2,2.8l0,0l0,0c-2-0.4-3.8-0.6-5.8-1c-0.6-1-1.2-2-2-2.8c-1-1.2-2.6-1-3.4,0c-1.6,1.6,1.2,1.8,1.4,2.8
		c0.6,1,1.2,2,2,3c-0.4,0.4-0.8,0.8-1.2,1.2l0,0l0,0c-1.4-0.2-3.2-2.2-4.2,0c-1.2,2.2,2,1.4,2.4,2.6c0.8,1.4,1.4,2.8,2.2,4.2
		c0,0.4,0,0.6-0.2,1c0,0.4,0,0.6,0,1c-2.4,0.6-3.8,2.4-3.6,4.6c0,2,2.2,1.2,3.6,1.6l0,0c0.4,0.2,0.8,0.6,1,0.8c-0.2,3.6,2.2,2,3.8,2
		c0,1.2,2.8,2,0.8,3.8l0,0c-0.4,0-0.6,0-0.8,0.2c-2.4,0-4.6-0.2-7-0.2c-1.6-0.6-3.2-1.4-4.8-2.2c-1.6,3.2-0.2,5.8,2,8
		c-0.4,0.4-0.8,0.8-1.2,1.4c-1.4-2-3.4-0.8-5.2-0.8c-4.2-1-8.6-2-12.7-3.2c0,150.5,0,300.9,0,451.4c0,4,0.6,5.2,5,5.2
		c639.4-0.2,1278.8-0.2,1918.2-0.2c0-106.2,0-212.4,0-318.6C1923.1,410.8,1922.9,388.1,1923.1,365.6z M1167.4,564.9L1167.4,564.9
		L1167.4,564.9L1167.4,564.9L1167.4,564.9L1167.4,564.9z M1180.5,585L1180.5,585L1180.5,585L1180.5,585L1180.5,585L1180.5,585z
		 M1175.4,584L1175.4,584L1175.4,584L1175.4,584z M1175.6,584C1175.6,584,1175.4,584,1175.6,584C1175.4,584,1175.4,583.8,1175.6,584
		c-0.2-0.2-0.2-0.2-0.2-0.2l0,0C1175.4,583.6,1175.4,583.8,1175.6,584C1175.4,583.8,1175.6,584,1175.6,584z M57.3,284.9L57.3,284.9
		L57.3,284.9L57.3,284.9z M31,298.6C31,298.6,31,298.4,31,298.6c0-0.2,0-0.2,0-0.2S31,298.4,31,298.6C31,298.4,31,298.4,31,298.6
		L31,298.6C31,298.4,31,298.6,31,298.6z M39.8,248.7v-0.2C39.8,248.5,40,248.5,39.8,248.7C40,248.7,39.8,248.7,39.8,248.7z
		 M28.8,288.7L28.8,288.7L28.8,288.7L28.8,288.7z M29,288.8c-0.2,0-0.2-0.2-0.4-0.2C28.8,288.8,28.8,288.8,29,288.8z M113.6,350.3
		L113.6,350.3L113.6,350.3L113.6,350.3z M117.5,372.2L117.5,372.2L117.5,372.2L117.5,372.2L117.5,372.2L117.5,372.2L117.5,372.2z
		 M100,380.9C100.2,380.9,100.2,380.9,100,380.9C100.2,380.9,100.2,381.1,100,380.9C100.2,381.1,100,380.9,100,380.9z M219.6,370
		L219.6,370L219.6,370L219.6,370L219.6,370z M221.9,389.9c0-0.2,0-0.2-0.2-0.4C221.9,389.7,221.9,389.7,221.9,389.9z M213,400.6
		L213,400.6L213,400.6L213,400.6z M462.2,526.5L462.2,526.5L462.2,526.5L462.2,526.5z M461.8,542.2c-0.2,0-0.2,0-0.4,0.2
		C461.6,542.4,461.6,542.2,461.8,542.2z M825.3,548L825.3,548L825.3,548C825.3,548.2,825.3,548.2,825.3,548
		C825.3,548.2,825.3,548,825.3,548z M835.3,574.8L835.3,574.8L835.3,574.8L835.3,574.8z M826.3,554.9L826.3,554.9L826.3,554.9
		L826.3,554.9L826.3,554.9L826.3,554.9z M822.4,568.1L822.4,568.1L822.4,568.1L822.4,568.1L822.4,568.1L822.4,568.1z M835.3,574.8
		L835.3,574.8L835.3,574.8L835.3,574.8L835.3,574.8z M832.1,546.8L832.1,546.8L832.1,546.8c0.2,0,0.2,0.2,0.4,0.4
		C832.3,547,832.1,547,832.1,546.8z M1083.5,592.9C1083.5,592.7,1083.7,592.7,1083.5,592.9C1083.7,592.7,1083.7,592.9,1083.5,592.9
		C1083.7,592.9,1083.5,592.9,1083.5,592.9z M1259.1,572.6c0.2-0.4,0.6-0.8,1-1.2C1259.9,571.9,1259.5,572.2,1259.1,572.6z
		 M1255.3,553.4L1255.3,553.4L1255.3,553.4L1255.3,553.4z M1248.9,576.6L1248.9,576.6C1248.9,576.8,1248.9,576.8,1248.9,576.6
		C1248.9,576.8,1248.9,576.6,1248.9,576.6z M1635.8,501.2L1635.8,501.2L1635.8,501.2L1635.8,501.2L1635.8,501.2L1635.8,501.2
		L1635.8,501.2z M1638.7,515.2L1638.7,515.2L1638.7,515.2L1638.7,515.2z M1639.7,508.2L1639.7,508.2L1639.7,508.2L1639.7,508.2z
		 M1757.1,429.9L1757.1,429.9L1757.1,429.9L1757.1,429.9z M1755.1,401C1755.1,401,1755.1,400.8,1755.1,401L1755.1,401
		C1755.1,400.8,1755.1,400.8,1755.1,401L1755.1,401L1755.1,401z M1747.1,400.8C1747.1,400.8,1747.1,401,1747.1,400.8
		C1747.1,401,1747.1,400.8,1747.1,400.8L1747.1,400.8L1747.1,400.8L1747.1,400.8z"/>
	<path d="M910.7,594.5c1,0,2,0,3,0.2c-1-1.8,1.8-4.2-0.6-5.8c0.2-0.2,0.2-0.4,0-0.6c2.4-1.8,0.4-3.8,0.4-5.8c0-6-0.8-11.7-2-17.7
		c-1.2,0.4-1.6,1.2-1.6,2c-1.2,8-1.6,15.9-1.4,24.1C908.5,592.1,908.1,594.1,910.7,594.5z"/>
	<path d="M1375.4,566.7c1,0.4,2,0.8,3,1c0,2.2-0.6,4.4,0.4,7c1-2.6,0.4-4.8,0.4-6.8c0.2-1.2,2.6,1.8,2.6-2
		c-0.2-6.6,0.2-13.1-0.6-19.9c0-2,0.4-4.2-1-5.8l0,0l0,0c-1.8-1.6,0.4-3.4,0-5c0-1.6,0.4-3.4-1.6-4.6c-0.6,1.6-0.6,3-0.4,4.4
		c0,0.2,0,0.6-0.2,0.8c-1,2.6-2.2,5.4-1,8.2l0,0c-1.6,4.2-1,8.4-0.6,12.7C1373,559.9,1374.2,563.3,1375.4,566.7z"/>
	<path d="M1520.2,529.5c0.4-1.2,0.4-2.2-1.2-2.8c-0.8,1.2-1,2.2,0,3.2C1519.2,530.1,1520.2,529.7,1520.2,529.5z"/>
</g>
</svg>
