<?xml version="1.0" encoding="utf-8"?>
<!-- Generator: Adobe Illustrator 22.0.1, SVG Export Plug-In . SVG Version: 6.00 Build 0)  -->
<svg version="1.1" id="레이어_1" xmlns="http://www.w3.org/2000/svg" xmlns:xlink="http://www.w3.org/1999/xlink" x="0px"
	 y="0px" viewBox="0 0 1306 315" style="enable-background:new 0 0 1306 315;" xml:space="preserve">
<style type="text/css">
	.st0{fill:url(#SVGID_1_);}
	.st1{fill:url(#SVGID_2_);}
</style>
<image style="overflow:visible;enable-background:new    ;" width="649" height="183" xlink:href="D390A37C.png"  transform="matrix(1.001 0 0 1.001 328.1755 -904.1776)">
</image>
<linearGradient id="SVGID_1_" gradientUnits="userSpaceOnUse" x1="654.0878" y1="-452.9129" x2="654.0878" y2="-791.329" gradientTransform="matrix(1 0 0 -1 0 -427.003)">
	<stop  offset="0" style="stop-color:#8FCEC2"/>
	<stop  offset="1" style="stop-color:#367065"/>
</linearGradient>
<path class="st0" d="M0,369.6l2-247.7c0,0,12.1-24.2,50.4-24.2c16.1,0,16.1-2,22.2-2s7,2.4,9.7,2.4s9.1-5.4,19.1-5.4
	s16.1,1.6,20.7,1.4c4.6-0.4,17.1-9.5,28.2-11.5c11.1-2,14.1,2.4,18.1,1.6c4-0.6,11.1-7.7,23.8-9.7s19.5,4.6,25.2,4
	c5.6-0.6,7.3-8.3,23-11.7c9.3-1.8,14.7,1.6,16.9,1.2c2.2-0.2,4.6-4.8,13.9-7.3c9.3-2.4,11.7,4,15.7,3.2c4-0.8,10.7-7.9,19.1-8.3
	c8.5-0.4,22.2-1.6,33.8-4s116-35.7,140-35.7s69.1-3.6,81.2-6.4S599.8,0,616.7,0c16.7,0,178.9,24.2,207.7,29.8s60,14.7,78.6,15.1
	c18.5,0.4,51.4,4,91.2,19.1c39.9,15.1,86.6,22,113.8,23.4c27,1.2,119.6,14.3,200.2,66.7v215.5H0z"/>
<linearGradient id="SVGID_2_" gradientUnits="userSpaceOnUse" x1="617.3301" y1="-476.0135" x2="617.3301" y2="-801.451" gradientTransform="matrix(1 0 0 -1 0 -427.003)">
	<stop  offset="0" style="stop-color:#99E1D4"/>
	<stop  offset="1" style="stop-color:#306F62"/>
</linearGradient>
<path class="st1" d="M880.4,249.8c-4-11.1-17.5-25.2-31.6-28.8c-14.1-3.6-17.1-21.1-20.1-28.6c-3-7.5-29.2-14.5-30.2-14.5
	c-1,0-21.8-4.8-25-8.9c-3.2-4-12.7-6.2-9.1-10.5c8.5-9.9-10.9-18.9-13.1-20.7c-2.2-1.8-2.4-6,0.6-12.1s25.8-0.6,31.2-6
	c9.1-10.5-32.6-12.9-45.9-14.7c-13.3-1.8-14.1-3.8-14.7-5.4c-0.6-1.6-1-3.8,3.6-7.3c4.8-3.4-2.8-5.8-1.4-6.4
	c9.9-1,27.6,0.2,26.6-4.6c-1-4.8-22-3.8-22-3.8c12.7-8.9-26.8-6.4-43.5-4c-16.7,2.4-18.5-5.2-19.9-7.3s-3-3,6.8-8.7
	c9.9-5.6-5.2-7.7-11.7-8.1c-6.4-0.6-10.3-4.6-7.7-7.3c2.6-2.6,4.8-4.4-0.6-7.3s-5-7-3.6-11.1s-9.5-11.1-9.5-11.1
	C630.6,1.2,617.5,0,617.5,0s-13.1,1.2-22.4,13.1c0,0-10.7,7-9.5,11.1c1.4,4,1.8,8.3-3.6,11.1c-5.4,2.8-3.4,4.6-0.6,7.3
	c2.6,2.6-1.2,6.6-7.7,7.3c-6.4,0.6-21.6,2.6-11.7,8.1c9.9,5.6,8.5,6.6,6.8,8.7c-1.6,2-3.2,9.7-19.9,7.3s-56-4.8-43.5,4
	c0,0-20.9-1-22,3.8c-1,4.8,16.7,3.6,26.6,4.6c1.4,0.6-6.2,3-1.4,6.4c4.8,3.4,4.2,5.6,3.6,7.3s-1.4,3.8-14.7,5.4
	c-13.3,1.6-55,4.2-45.9,14.7c5.4,5.4,28.2,0,31.2,6s2.8,10.3,0.6,12.1c-2.2,1.8-21.6,10.9-13.1,20.7c3.6,4.2-5.8,6.2-9.1,10.5
	c-3.2,4.2-24,8.9-25,8.9c-1,0-27.2,7-30.2,14.5c-3,7.5-6,24.8-20.1,28.6c-14.1,3.8-27.6,17.7-31.6,28.8
	c-4,11.1-205.4,64.5-205.4,149h468.3h468.3C1085.8,314.2,884.4,260.8,880.4,249.8z"/>
</svg>
